<svg width="76" height="39" viewBox="0 0 76 39" fill="none" xmlns="http://www.w3.org/2000/svg">
<path d="M13.58 0.799999V15H10.3V9.18H4.64V15H1.36V0.799999H4.64V6.3H10.3V0.799999H13.58ZM27.5014 15V6.54L24.4414 12.7H22.6414L19.5814 6.54V15H16.3014V0.799999H19.8614L23.5414 8.22L27.2414 0.799999H30.7814V15H27.5014ZM9.88 27.96C9.84 27.8933 9.7 27.7933 9.46 27.66C9.22 27.5133 8.92 27.36 8.56 27.2C8.2 27.04 7.80667 26.9 7.38 26.78C6.95333 26.66 6.52667 26.6 6.1 26.6C5.54 26.6 5.10667 26.7 4.8 26.9C4.49333 27.0867 4.34 27.38 4.34 27.78C4.34 28.1 4.45333 28.3533 4.68 28.54C4.92 28.7267 5.26 28.8933 5.7 29.04C6.14 29.1733 6.68 29.3333 7.32 29.52C8.22667 29.76 9.01333 30.0533 9.68 30.4C10.3467 30.7333 10.8533 31.1667 11.2 31.7C11.56 32.2333 11.74 32.94 11.74 33.82C11.74 34.62 11.5933 35.3 11.3 35.86C11.0067 36.4067 10.6067 36.8533 10.1 37.2C9.60667 37.5333 9.04 37.78 8.4 37.94C7.76 38.0867 7.1 38.16 6.42 38.16C5.72667 38.16 5.01333 38.0933 4.28 37.96C3.56 37.8133 2.86667 37.6133 2.2 37.36C1.53333 37.0933 0.92 36.7733 0.36 36.4L1.8 33.54C1.85333 33.6067 2.02667 33.7333 2.32 33.92C2.61333 34.0933 2.97333 34.28 3.4 34.48C3.84 34.6667 4.32667 34.8333 4.86 34.98C5.39333 35.1267 5.93333 35.2 6.48 35.2C7.06667 35.2 7.5 35.1067 7.78 34.92C8.07333 34.7333 8.22 34.4733 8.22 34.14C8.22 33.78 8.06667 33.5 7.76 33.3C7.46667 33.1 7.06 32.92 6.54 32.76C6.03333 32.6 5.44667 32.42 4.78 32.22C3.91333 31.9533 3.19333 31.6533 2.62 31.32C2.06 30.9867 1.64 30.58 1.36 30.1C1.09333 29.62 0.96 29.02 0.96 28.3C0.96 27.3 1.19333 26.46 1.66 25.78C2.14 25.0867 2.78 24.5667 3.58 24.22C4.38 23.86 5.25333 23.68 6.2 23.68C6.86667 23.68 7.50667 23.76 8.12 23.92C8.74667 24.08 9.32667 24.28 9.86 24.52C10.4067 24.76 10.8933 25 11.32 25.24L9.88 27.96ZM18.4247 38.2C17.5314 38.2 16.738 38.06 16.0447 37.78C15.3514 37.4867 14.758 37.0933 14.2647 36.6C13.7847 36.1067 13.418 35.54 13.1647 34.9C12.9114 34.2467 12.7847 33.5667 12.7847 32.86C12.7847 31.8467 13.0047 30.9267 13.4447 30.1C13.898 29.26 14.5447 28.5867 15.3847 28.08C16.2247 27.56 17.238 27.3 18.4247 27.3C19.6114 27.3 20.618 27.5533 21.4447 28.06C22.2847 28.5667 22.9247 29.2333 23.3647 30.06C23.8047 30.8733 24.0247 31.76 24.0247 32.72C24.0247 32.9067 24.0114 33.0933 23.9847 33.28C23.9714 33.4533 23.958 33.6067 23.9447 33.74H16.1847C16.2247 34.2067 16.3514 34.6 16.5647 34.92C16.7914 35.24 17.078 35.4867 17.4247 35.66C17.7714 35.82 18.138 35.9 18.5247 35.9C19.0047 35.9 19.4514 35.7867 19.8647 35.56C20.2914 35.3333 20.5847 35.0267 20.7447 34.64L23.4647 35.4C23.198 35.9467 22.818 36.4333 22.3247 36.86C21.8447 37.2733 21.2714 37.6 20.6047 37.84C19.9514 38.08 19.2247 38.2 18.4247 38.2ZM16.1047 31.78H20.6647C20.6114 31.34 20.4847 30.96 20.2847 30.64C20.0847 30.3067 19.818 30.0533 19.4847 29.88C19.1514 29.6933 18.7847 29.6 18.3847 29.6C17.9714 29.6 17.598 29.6933 17.2647 29.88C16.9447 30.0533 16.6847 30.3067 16.4847 30.64C16.2847 30.96 16.158 31.34 16.1047 31.78ZM32.135 30.24C31.3617 30.24 30.6617 30.3667 30.035 30.62C29.4083 30.86 28.955 31.22 28.675 31.7V38H25.475V27.5H28.415V29.62C28.775 28.9133 29.2417 28.36 29.815 27.96C30.3883 27.56 30.9883 27.3533 31.615 27.34C31.7617 27.34 31.8683 27.34 31.935 27.34C32.015 27.34 32.0817 27.3467 32.135 27.36V30.24ZM36.2028 38L32.4828 27.5H35.7828L38.0828 35.12L40.3828 27.5H43.3828L39.6828 38H36.2028ZM49.2645 38.2C48.3712 38.2 47.5779 38.0533 46.8845 37.76C46.1912 37.4667 45.5979 37.0667 45.1045 36.56C44.6245 36.0533 44.2579 35.4733 44.0045 34.82C43.7512 34.1667 43.6245 33.4733 43.6245 32.74C43.6245 31.78 43.8445 30.8867 44.2845 30.06C44.7379 29.2333 45.3845 28.5667 46.2245 28.06C47.0645 27.5533 48.0779 27.3 49.2645 27.3C50.4645 27.3 51.4779 27.56 52.3045 28.08C53.1445 28.5867 53.7712 29.2533 54.1845 30.08L51.0645 31.02C50.8645 30.7 50.6045 30.4533 50.2845 30.28C49.9779 30.1067 49.6312 30.02 49.2445 30.02C48.8045 30.02 48.4045 30.1333 48.0445 30.36C47.6979 30.5867 47.4179 30.9 47.2045 31.3C47.0045 31.7 46.9045 32.18 46.9045 32.74C46.9045 33.2867 47.0112 33.7667 47.2245 34.18C47.4379 34.5933 47.7179 34.92 48.0645 35.16C48.4112 35.3867 48.8045 35.5 49.2445 35.5C49.5112 35.5 49.7579 35.46 49.9845 35.38C50.2245 35.2867 50.4379 35.16 50.6245 35C50.8245 34.84 50.9779 34.66 51.0845 34.46L54.2045 35.42C53.9512 35.9533 53.5845 36.4333 53.1045 36.86C52.6379 37.2733 52.0845 37.6 51.4445 37.84C50.8045 38.08 50.0779 38.2 49.2645 38.2ZM60.5731 38.2C59.6798 38.2 58.8865 38.06 58.1931 37.78C57.4998 37.4867 56.9065 37.0933 56.4131 36.6C55.9331 36.1067 55.5665 35.54 55.3131 34.9C55.0598 34.2467 54.9331 33.5667 54.9331 32.86C54.9331 31.8467 55.1531 30.9267 55.5931 30.1C56.0465 29.26 56.6931 28.5867 57.5331 28.08C58.3731 27.56 59.3865 27.3 60.5731 27.3C61.7598 27.3 62.7665 27.5533 63.5931 28.06C64.4331 28.5667 65.0731 29.2333 65.5131 30.06C65.9531 30.8733 66.1731 31.76 66.1731 32.72C66.1731 32.9067 66.1598 33.0933 66.1331 33.28C66.1198 33.4533 66.1065 33.6067 66.0931 33.74H58.3331C58.3731 34.2067 58.4998 34.6 58.7131 34.92C58.9398 35.24 59.2265 35.4867 59.5731 35.66C59.9198 35.82 60.2865 35.9 60.6731 35.9C61.1531 35.9 61.5998 35.7867 62.0131 35.56C62.4398 35.3333 62.7331 35.0267 62.8931 34.64L65.6131 35.4C65.3465 35.9467 64.9665 36.4333 64.4731 36.86C63.9931 37.2733 63.4198 37.6 62.7531 37.84C62.0998 38.08 61.3731 38.2 60.5731 38.2ZM58.2531 31.78H62.8131C62.7598 31.34 62.6331 30.96 62.4331 30.64C62.2331 30.3067 61.9665 30.0533 61.6331 29.88C61.2998 29.6933 60.9331 29.6 60.5331 29.6C60.1198 29.6 59.7465 29.6933 59.4131 29.88C59.0931 30.0533 58.8331 30.3067 58.6331 30.64C58.4331 30.96 58.3065 31.34 58.2531 31.78ZM71.6434 38.2C70.7501 38.2 69.8768 38.0533 69.0234 37.76C68.1701 37.4667 67.4501 37.0333 66.8634 36.46L67.9634 34.44C68.6034 34.9067 69.2234 35.26 69.8234 35.5C70.4368 35.74 71.0101 35.86 71.5434 35.86C71.9568 35.86 72.2768 35.7933 72.5034 35.66C72.7301 35.5267 72.8434 35.32 72.8434 35.04C72.8434 34.84 72.7768 34.6867 72.6434 34.58C72.5101 34.46 72.3034 34.3533 72.0234 34.26C71.7568 34.1667 71.4234 34.0667 71.0234 33.96C70.2234 33.6933 69.5568 33.4333 69.0234 33.18C68.4901 32.9267 68.0901 32.62 67.8234 32.26C67.5568 31.8867 67.4234 31.4067 67.4234 30.82C67.4234 30.1133 67.5968 29.5 67.9434 28.98C68.3034 28.4467 68.8101 28.0333 69.4634 27.74C70.1168 27.4467 70.8968 27.3 71.8034 27.3C72.5234 27.3 73.2234 27.4133 73.9034 27.64C74.5968 27.8667 75.2434 28.2467 75.8434 28.78L74.6034 30.78C74.0034 30.3667 73.4701 30.0667 73.0034 29.88C72.5368 29.6933 72.0834 29.6 71.6434 29.6C71.4168 29.6 71.2101 29.6267 71.0234 29.68C70.8368 29.7333 70.6834 29.8267 70.5634 29.96C70.4568 30.08 70.4034 30.24 70.4034 30.44C70.4034 30.64 70.4568 30.8 70.5634 30.92C70.6834 31.04 70.8634 31.1467 71.1034 31.24C71.3568 31.32 71.6701 31.42 72.0434 31.54C72.9101 31.7933 73.6301 32.0533 74.2034 32.32C74.7768 32.5733 75.2034 32.8933 75.4834 33.28C75.7768 33.6533 75.9234 34.1533 75.9234 34.78C75.9234 35.8467 75.5368 36.6867 74.7634 37.3C74.0034 37.9 72.9634 38.2 71.6434 38.2Z" fill="black"/>
</svg>
