<svg width="23" height="22" viewBox="0 0 23 22" fill="none" xmlns="http://www.w3.org/2000/svg">
<path d="M9.30073 0.717393C7.94543 0.718078 6.6092 1.01976 5.39944 1.59818C4.18968 2.1766 3.14013 3.01563 2.33515 4.04784C1.53017 5.08005 0.992208 6.27664 0.764509 7.54144C0.53681 8.80624 0.625721 10.104 1.0241 11.3303C1.42247 12.5567 2.1192 13.6775 3.05828 14.6026C3.99737 15.5277 5.15261 16.2314 6.43116 16.657C7.70972 17.0826 9.07592 17.2184 10.42 17.0533C11.764 16.8883 13.0484 16.427 14.1699 15.7066L19.5243 20.7714C19.673 20.9225 19.8523 21.0437 20.0516 21.1277C20.2509 21.2118 20.466 21.257 20.6841 21.2606C20.9022 21.2643 21.1189 21.2263 21.3212 21.1489C21.5234 21.0716 21.7072 20.9565 21.8615 20.8104C22.0157 20.6644 22.1373 20.4904 22.219 20.299C22.3007 20.1075 22.3409 19.9023 22.337 19.6959C22.3332 19.4894 22.2854 19.2857 22.1966 19.0971C22.1078 18.9084 21.9798 18.7386 21.8202 18.5979L16.4702 13.529C17.3553 12.2958 17.8686 10.8575 17.9549 9.36878C18.0412 7.88007 17.6972 6.39726 16.9599 5.07978C16.2226 3.76229 15.1199 2.65997 13.7704 1.89134C12.4209 1.12272 10.8757 0.716852 9.30073 0.717393ZM3.88573 8.91944C3.88573 7.55986 4.45624 6.25598 5.47175 5.29461C6.48726 4.33325 7.86458 3.79316 9.30073 3.79316C10.7369 3.79316 12.1142 4.33325 13.1297 5.29461C14.1452 6.25598 14.7157 7.55986 14.7157 8.91944C14.7157 10.279 14.1452 11.5829 13.1297 12.5443C12.1142 13.5056 10.7369 14.0457 9.30073 14.0457C7.86458 14.0457 6.48726 13.5056 5.47175 12.5443C4.45624 11.5829 3.88573 10.279 3.88573 8.91944Z" fill="#E0E0E0"/>
</svg>
